# xmcd CD database file
#
# Track frame offsets:
#	150
#	11896
#	37934
#	72886
#	89004
#	126943
#	151906
#	165721
#	182400
#
# Disc length: 2811 seconds
#
# Revision: 0
# Processed by: cddbd v1.5.2PL0 Copyright (c) Steve Scherf et al.
# Submitted via: CDex 1.70beta2
#
DISCID=6e0af909
DTITLE=Estas Tonne - Bohemian Skies
DYEAR=2009
DGENRE=Blues
TTITLE0=All Roads lead to rome
TTITLE1=The song of the Golden Dragon
TTITLE2=Bohemian skies
TTITLE3=David's entry
TTITLE4=The winds that bring you home
TTITLE5=Cuban Rhapsody
TTITLE6=Como un cristal
TTITLE7=Nayae
TTITLE8=Who am I
EXTD=YEAR: 2009
EXTT0=
EXTT1=
EXTT2=
EXTT3=
EXTT4=
EXTT5=
EXTT6=
EXTT7=
EXTT8=
PLAYORDER=
